HIERARCHY
ROOT hip
{
  OFFSET 5.70873 43.8894 -1.52928
  CHANNELS 6 Xposition Yposition Zposition Zrotation Xrotation Yrotation
  JOINT abdomen
  {
    OFFSET 0 5.99393 0.287273
    CHANNELS 6 Xposition Yposition Zposition Zrotation Xrotation Yrotation
    JOINT chest
    {
      OFFSET 0 6.65865 -0.856112
      CHANNELS 6 Xposition Yposition Zposition Zrotation Xrotation Yrotation
      JOINT neck
      {
        OFFSET 0 8.65624 -1.42685
        CHANNELS 6 Xposition Yposition Zposition Zrotation Xrotation Yrotation
        JOINT head
        {
          OFFSET 0 3.80999 -0.190247
          CHANNELS 6 Xposition Yposition Zposition Zrotation Xrotation Yrotation
          End Site
          {
            OFFSET 0 0 0
          }
        }
      }
      JOINT rCollar
      {
        OFFSET -1.4963 7.5744 -1.52136
        CHANNELS 6 Xposition Yposition Zposition Zrotation Xrotation Yrotation
        JOINT rShldr
        {
          OFFSET -5.47506 -0.905672 0.485692
          CHANNELS 6 Xposition Yposition Zposition Zrotation Xrotation Yrotation
          JOINT rForeArm
          {
            OFFSET -11.3069 -0.201091 0.618544
            CHANNELS 6 Xposition Yposition Zposition Zrotation Xrotation Yrotation
            JOINT rHand
            {
              OFFSET -9.61414 -0.254739 3.48553
              CHANNELS 6 Xposition Yposition Zposition Zrotation Xrotation Yrotation
              JOINT rThumb1
              {
                OFFSET 0.176263 -0.07068 1.26622
                CHANNELS 6 Xposition Yposition Zposition Zrotation Xrotation Yrotation
                JOINT rThumb2
                {
                  OFFSET -1.04683 -0.546484 1.82182
                  CHANNELS 6 Xposition Yposition Zposition Zrotation Xrotation Yrotation
                  JOINT rThumb3
                  {
                    OFFSET -0.993472 -0.621916 0.655506
                    CHANNELS 6 Xposition Yposition Zposition Zrotation Xrotation Yrotation
                    End Site
                    {
                      OFFSET -0.996134 -0.66263 0.644615
                    }
                  }
                }
              }
              JOINT rIndex1
              {
                OFFSET -2.64253 0.566363 2.4162
                CHANNELS 6 Xposition Yposition Zposition Zrotation Xrotation Yrotation
                JOINT rIndex2
                {
                  OFFSET -1.39394 -0.635138 0.899356
                  CHANNELS 6 Xposition Yposition Zposition Zrotation Xrotation Yrotation
                  JOINT rIndex3
                  {
                    OFFSET -0.622395 -0.856016 0.402182
                    CHANNELS 6 Xposition Yposition Zposition Zrotation Xrotation Yrotation
                    End Site
                    {
                      OFFSET -0.472476 -0.801802 0.34216
                    }
                  }
                }
              }
              JOINT rMid1
              {
                OFFSET -3.20814 0.514427 1.52547
                CHANNELS 6 Xposition Yposition Zposition Zrotation Xrotation Yrotation
                JOINT rMid2
                {
                  OFFSET -1.56545 -0.497974 0.68919
                  CHANNELS 6 Xposition Yposition Zposition Zrotation Xrotation Yrotation
                  JOINT rMid3
                  {
                    OFFSET -0.679943 -1.17582 0.444246
                    CHANNELS 6 Xposition Yposition Zposition Zrotation Xrotation Yrotation
                    End Site
                    {
                      OFFSET -0.343874 -0.941341 0.267611
                    }
                  }
                }
              }
              JOINT rRing1
              {
                OFFSET -3.47877 0.200518 0.597719
                CHANNELS 6 Xposition Yposition Zposition Zrotation Xrotation Yrotation
                JOINT rRing2
                {
                  OFFSET -1.28208 -0.53155 0.44672
                  CHANNELS 6 Xposition Yposition Zposition Zrotation Xrotation Yrotation
                  JOINT rRing3
                  {
                    OFFSET -0.710288 -0.970167 0.4032
                    CHANNELS 6 Xposition Yposition Zposition Zrotation Xrotation Yrotation
                    End Site
                    {
                      OFFSET -0.403228 -0.950952 0.378354
                    }
                  }
                }
              }
              JOINT rPinky1
              {
                OFFSET -3.42483 -0.278904 -0.240415
                CHANNELS 6 Xposition Yposition Zposition Zrotation Xrotation Yrotation
                JOINT rPinky2
                {
                  OFFSET -1.05787 -0.635999 0.156459
                  CHANNELS 6 Xposition Yposition Zposition Zrotation Xrotation Yrotation
                  JOINT rPinky3
                  {
                    OFFSET -0.42815 -0.754232 0.287187
                    CHANNELS 6 Xposition Yposition Zposition Zrotation Xrotation Yrotation
                    End Site
                    {
                      OFFSET -0.235717 -0.725605 0.279416
                    }
                  }
                }
              }
            }
          }
        }
      }
      JOINT lCollar
      {
        OFFSET 1.4963 7.5744 -1.52136
        CHANNELS 6 Xposition Yposition Zposition Zrotation Xrotation Yrotation
        JOINT lShldr
        {
          OFFSET 5.47506 -0.905672 0.485692
          CHANNELS 6 Xposition Yposition Zposition Zrotation Xrotation Yrotation
          JOINT lForeArm
          {
            OFFSET 11.3069 -0.201091 0.618544
            CHANNELS 6 Xposition Yposition Zposition Zrotation Xrotation Yrotation
            JOINT lHand
            {
              OFFSET 9.61414 -0.254739 3.48553
              CHANNELS 6 Xposition Yposition Zposition Zrotation Xrotation Yrotation
              JOINT lThumb1
              {
                OFFSET -0.176263 -0.07068 1.26622
                CHANNELS 6 Xposition Yposition Zposition Zrotation Xrotation Yrotation
                JOINT lThumb2
                {
                  OFFSET 1.04683 -0.546484 1.82182
                  CHANNELS 6 Xposition Yposition Zposition Zrotation Xrotation Yrotation
                  JOINT lThumb3
                  {
                    OFFSET 0.993472 -0.621916 0.655506
                    CHANNELS 6 Xposition Yposition Zposition Zrotation Xrotation Yrotation
                    End Site
                    {
                      OFFSET 0.996134 -0.66263 0.644615
                    }
                  }
                }
              }
              JOINT lIndex1
              {
                OFFSET 2.64253 0.566363 2.4162
                CHANNELS 6 Xposition Yposition Zposition Zrotation Xrotation Yrotation
                JOINT lIndex2
                {
                  OFFSET 1.39394 -0.635138 0.899356
                  CHANNELS 6 Xposition Yposition Zposition Zrotation Xrotation Yrotation
                  JOINT lIndex3
                  {
                    OFFSET 0.622395 -0.856016 0.402182
                    CHANNELS 6 Xposition Yposition Zposition Zrotation Xrotation Yrotation
                    End Site
                    {
                      OFFSET 0.472476 -0.801802 0.34216
                    }
                  }
                }
              }
              JOINT lMid1
              {
                OFFSET 3.20814 0.514427 1.52547
                CHANNELS 6 Xposition Yposition Zposition Zrotation Xrotation Yrotation
                JOINT lMid2
                {
                  OFFSET 1.56545 -0.497974 0.68919
                  CHANNELS 6 Xposition Yposition Zposition Zrotation Xrotation Yrotation
                  JOINT lMid3
                  {
                    OFFSET 0.679943 -1.17582 0.444246
                    CHANNELS 6 Xposition Yposition Zposition Zrotation Xrotation Yrotation
                    End Site
                    {
                      OFFSET 0.343874 -0.941341 0.267611
                    }
                  }
                }
              }
              JOINT lRing1
              {
                OFFSET 3.47877 0.200518 0.597719
                CHANNELS 6 Xposition Yposition Zposition Zrotation Xrotation Yrotation
                JOINT lRing2
                {
                  OFFSET 1.28208 -0.53155 0.44672
                  CHANNELS 6 Xposition Yposition Zposition Zrotation Xrotation Yrotation
                  JOINT lRing3
                  {
                    OFFSET 0.710288 -0.970167 0.4032
                    CHANNELS 6 Xposition Yposition Zposition Zrotation Xrotation Yrotation
                    End Site
                    {
                      OFFSET 0.403228 -0.950952 0.378354
                    }
                  }
                }
              }
              JOINT lPinky1
              {
                OFFSET 3.42483 -0.278904 -0.240415
                CHANNELS 6 Xposition Yposition Zposition Zrotation Xrotation Yrotation
                JOINT lPinky2
                {
                  OFFSET 1.05787 -0.635999 0.156459
                  CHANNELS 6 Xposition Yposition Zposition Zrotation Xrotation Yrotation
                  JOINT lPinky3
                  {
                    OFFSET 0.42815 -0.754232 0.287187
                    CHANNELS 6 Xposition Yposition Zposition Zrotation Xrotation Yrotation
                    End Site
                    {
                      OFFSET 0.235717 -0.725605 0.279416
                    }
                  }
                }
              }
            }
          }
        }
      }
    }
  }
  JOINT rThigh
  {
    OFFSET -4.17848 -1.02486 0.046356
    CHANNELS 6 Xposition Yposition Zposition Zrotation Xrotation Yrotation
    JOINT rShin
    {
      OFFSET 1.27155 -17.465 -0.237699
      CHANNELS 6 Xposition Yposition Zposition Zrotation Xrotation Yrotation
      JOINT rFoot
      {
        OFFSET 0.529163 -17.3815 -1.19582
        CHANNELS 6 Xposition Yposition Zposition Zrotation Xrotation Yrotation
        JOINT rToe
        {
          OFFSET -0.711591 -4.4863 4.0596
          CHANNELS 6 Xposition Yposition Zposition Zrotation Xrotation Yrotation
          End Site
          {
            OFFSET -0.869915 -1.10655 1.99006
          }
        }
      }
    }
  }
  JOINT lThigh
  {
    OFFSET 4.17848 -1.02486 0.046356
    CHANNELS 6 Xposition Yposition Zposition Zrotation Xrotation Yrotation
    JOINT lShin
    {
      OFFSET -1.27155 -17.465 -0.237699
      CHANNELS 6 Xposition Yposition Zposition Zrotation Xrotation Yrotation
      JOINT lFoot
      {
        OFFSET -0.529163 -17.3815 -1.19582
        CHANNELS 6 Xposition Yposition Zposition Zrotation Xrotation Yrotation
        JOINT lToe
        {
          OFFSET 0.711591 -4.4863 4.0596
          CHANNELS 6 Xposition Yposition Zposition Zrotation Xrotation Yrotation
          End Site
          {
            OFFSET 0.869915 -1.10655 1.99006
          }
        }
      }
    }
  }
}
MOTION
Frames:	4
Frame Time:	0.0333333
-16.9668 42.868 -22.8232 -0.635287 6.14509 101.884 0 5.99393 0.287273 0.0206334 -3.58793 1.70382 -3.55271e-015 6.65865 -0.856112 0.148894 -7.17376 3.41902 0 8.65624 -1.42685 -0.570569 13.6137 -8.57523 0 3.80999 -0.190247 -6.33081 -1.10015 -8.80725 -1.4963 7.5744 -1.52136 -43.5806 -1.20682 5.58145 -5.47506 -0.905672 0.485692 -7.91675 -42.0544 -3.66628 -11.3069 -0.201091 0.618544 2.07392 -34.9781 9.80979 -9.61414 -0.254739 3.48553 9.33665 -20.4716 -7.71182 0.176263 -0.07068 1.26622 -15.6871 50.412 18.5116 -1.04683 -0.546484 1.82182 -0.515952 0.557612 -1.56016 -0.993472 -0.621916 0.655506 -2.72965 3.35529 -8.82949 -2.64253 0.566363 2.4162 -23.6212 5.47093 -14.5209 -1.39394 -0.635138 0.899356 39.8961 7.70395 -8.81744 -0.622395 -0.856016 0.402182 39.2014 7.62944 -8.62658 -3.20814 0.514427 1.52547 -0.840475 5.94957 -9.82428 -1.56545 -0.497974 0.68919 52.7411 10.533 -13.0893 -0.679943 -1.17582 0.444246 44.481 9.78101 -10.5178 -3.47877 0.200518 0.597719 16.3707 -0.644969 -5.84618 -1.28208 -0.53155 0.44672 37.8364 9.71771 -10.3215 -0.710288 -0.970167 0.4032 39.1355 9.91105 -10.7659 -3.42483 -0.278904 -0.240415 24.5435 -1.90435 -2.26386 -1.05787 -0.635999 0.156459 31.0686 9.4788 -7.89269 -0.42815 -0.754232 0.287187 30.9985 9.46353 -7.86996 1.4963 7.5744 -1.52136 0.496444 0.856005 8.23864 5.47506 -0.905672 0.485692 -75.3947 -1.15724 30.862 11.3069 -0.201091 0.618544 1.29098 6.76744 -11.9961 9.61414 -0.254739 3.48553 -21.6355 -37.5599 0.727033 -0.176263 -0.07068 1.26622 0.000313869 0.000331338 7.36042e-006 1.04683 -0.546484 1.82182 -0.000251414 -0.000231034 1.50983e-005 0.993472 -0.621916 0.655506 -0.000194565 4.4623e-005 1.47612e-005 2.64253 0.566363 2.4162 -9.17741e-005 -0.000117258 0.000195666 1.39394 -0.635138 0.899356 0.000364369 0.000142811 -1.51952e-005 0.622395 -0.856016 0.402182 -0.000179945 2.24735e-005 2.85553e-005 3.20814 0.514427 1.52547 2.09791 -0.815594 -0.831916 1.56545 -0.497974 0.68919 2.09897 -0.816075 -0.832353 0.679943 -1.17582 0.444246 2.09906 -0.816184 -0.832657 3.47877 0.200518 0.597719 2.14279 -3.85046 -5.50197 1.28208 -0.53155 0.44672 4.62104 -2.03843 -2.04493 0.710288 -0.970167 0.4032 4.6213 -2.03843 -2.04501 3.42483 -0.278904 -0.240415 11.3265 -5.70938 -4.60753 1.05787 -0.635999 0.156459 4.0525 -1.91413 -1.75639 0.42815 -0.754232 0.287187 2.84279 -1.32697 -1.2434 -4.17848 -1.02486 0.046356 -2.15506 -19.8205 44.8096 1.27155 -17.465 -0.237699 9.22136 39.7438 -1.77183 0.529163 -17.3815 -1.19582 -12.8306 8.83004 -21.2815 -0.711591 -4.4863 4.0596 25.343 -2.83566 -8.17081 4.17848 -1.02486 0.046356 -20.3969 2.9422 -1.4115 -1.27155 -17.465 -0.237699 0.486564 -3.16369 0.933122 -0.529163 -17.3815 -1.19582 9.35537 0.313356 -6.28027 0.711591 -4.4863 4.0596 5.8344 4.89979 -1.08933 
-17.0325 42.8195 -22.9098 -0.78649 6.53703 102.196 0 5.99393 0.287273 -0.0992302 -3.61406 1.87317 0 6.65865 -0.856112 -0.0799888 -7.22944 3.75131 0 8.65624 -1.42685 -0.455172 14.293 -8.43799 0 3.80999 -0.190247 -6.71171 -1.06224 -8.64307 -1.4963 7.5744 -1.52136 -43.7805 -1.21389 5.66323 -5.47506 -0.905672 0.485692 -8.64127 -41.9431 -4.16108 -11.3069 -0.201091 0.618544 1.62655 -34.4623 8.67595 -9.61414 -0.254739 3.48553 9.75975 -20.448 -7.32192 0.176263 -0.07068 1.26622 -15.6871 50.412 18.5116 -1.04683 -0.546484 1.82182 -0.515936 0.557625 -1.56017 -0.993472 -0.621916 0.655506 -2.72966 3.35529 -8.82949 -2.64253 0.566363 2.4162 -23.6212 5.47094 -14.5209 -1.39394 -0.635138 0.899356 39.8961 7.70397 -8.81743 -0.622395 -0.856016 0.402182 39.2014 7.62941 -8.62656 -3.20814 0.514427 1.52547 -0.840485 5.94958 -9.82428 -1.56545 -0.497974 0.68919 52.7411 10.533 -13.0893 -0.679943 -1.17582 0.444246 44.481 9.78102 -10.5178 -3.47877 0.200518 0.597719 16.3707 -0.644942 -5.84618 -1.28208 -0.53155 0.44672 37.8364 9.71771 -10.3215 -0.710288 -0.970167 0.4032 39.1355 9.91105 -10.7659 -3.42483 -0.278904 -0.240415 24.5435 -1.90434 -2.26386 -1.05787 -0.635999 0.156459 31.0686 9.47881 -7.8927 -0.42815 -0.754232 0.287187 30.9985 9.46353 -7.86996 1.4963 7.5744 -1.52136 0.0811223 0.862584 8.4048 5.47506 -0.905672 0.485692 -75.3505 -1.22133 30.9634 11.3069 -0.201091 0.618544 1.31788 6.59178 -12.0687 9.61414 -0.254739 3.48553 -21.5941 -37.7305 0.73997 -0.176263 -0.07068 1.26622 0.0171392 0.0155964 0.0543967 1.04683 -0.546484 1.82182 -0.00636791 -0.00203365 -0.0107921 0.993472 -0.621916 0.655506 0.0215659 0.00412589 0.029218 2.64253 0.566363 2.4162 -0.0749038 0.0444945 0.0742217 1.39394 -0.635138 0.899356 -0.0518994 0.0176665 0.0208667 0.622395 -0.856016 0.402182 -0.0646765 0.0215766 0.0258313 3.20814 0.514427 1.52547 2.03652 -0.773583 -0.800058 1.56545 -0.497974 0.68919 2.01435 -0.782504 -0.799294 0.679943 -1.17582 0.444246 2.03654 -0.791331 -0.808205 3.47877 0.200518 0.597719 2.08498 -3.81318 -5.45545 1.28208 -0.53155 0.44672 4.52688 -1.99496 -2.00455 0.710288 -0.970167 0.4032 4.54848 -2.00477 -2.01379 3.42483 -0.278904 -0.240415 11.215 -5.65586 -4.57776 1.05787 -0.635999 0.156459 3.97292 -1.87511 -1.72297 0.42815 -0.754232 0.287187 2.77936 -1.29039 -1.21452 -4.17848 -1.02486 0.046356 -2.2223 -19.6672 45.6955 1.27155 -17.465 -0.237699 9.3151 40.0701 -2.0212 0.529163 -17.3815 -1.19582 -13.5512 8.76661 -21.5478 -0.711591 -4.4863 4.0596 25.4865 -2.66828 -8.34637 4.17848 -1.02486 0.046356 -20.9481 2.88963 -1.58681 -1.27155 -17.465 -0.237699 0.484443 -3.16407 0.920387 -0.529163 -17.3815 -1.19582 9.39586 0.391242 -6.39601 0.711591 -4.4863 4.0596 6.00797 5.04389 -1.13606 
-17.0809 42.7695 -22.976 -0.893738 6.83035 102.538 0 5.99393 0.287273 -0.189302 -3.63517 2.02054 0 6.65865 -0.856112 -0.250526 -7.27475 4.04121 0 8.65624 -1.42685 -0.348766 15.0043 -8.31758 -3.55271e-015 3.80999 -0.190247 -7.01986 -1.0317 -8.46494 -1.4963 7.5744 -1.52136 -43.9178 -1.2114 5.60944 -5.47506 -0.905672 0.485692 -9.21047 -42.0986 -4.31984 -11.3069 -0.201091 0.618544 1.38001 -34.3909 7.52057 -9.61414 -0.254739 3.48553 10.0143 -19.7012 -6.95137 0.176263 -0.07068 1.26622 -15.6871 50.412 18.5116 -1.04683 -0.546484 1.82182 -0.515935 0.557622 -1.56017 -0.993472 -0.621916 0.655506 -2.72966 3.35529 -8.82949 -2.64253 0.566363 2.4162 -23.6212 5.47093 -14.5209 -1.39394 -0.635138 0.899356 39.8961 7.70398 -8.81744 -0.622395 -0.856016 0.402182 39.2014 7.62942 -8.62657 -3.20814 0.514427 1.52547 -0.840485 5.94957 -9.82428 -1.56545 -0.497974 0.68919 52.7411 10.533 -13.0893 -0.679943 -1.17582 0.444246 44.481 9.78102 -10.5178 -3.47877 0.200518 0.597719 16.3707 -0.644951 -5.84618 -1.28208 -0.53155 0.44672 37.8364 9.71771 -10.3215 -0.710288 -0.970167 0.4032 39.1355 9.91105 -10.7659 -3.42483 -0.278904 -0.240415 24.5435 -1.90434 -2.26386 -1.05787 -0.635999 0.156459 31.0686 9.47881 -7.8927 -0.42815 -0.754232 0.287187 30.9985 9.46353 -7.86996 1.4963 7.5744 -1.52136 -0.0958748 0.870945 8.60192 5.47506 -0.905672 0.485692 -75.5391 -1.2833 30.9733 11.3069 -0.201091 0.618544 1.31815 6.27686 -12.1881 9.61414 -0.254739 3.48553 -21.873 -37.9373 0.684699 -0.176263 -0.07068 1.26622 0.0653533 0.0593473 0.211072 1.04683 -0.546484 1.82182 -0.0238342 -0.00722461 -0.0419546 0.993472 -0.621916 0.655506 0.0527544 0.0158518 0.0944387 2.64253 0.566363 2.4162 -0.290801 0.172893 0.287643 1.39394 -0.635138 0.899356 -0.210869 0.0694583 0.0824552 0.622395 -0.856016 0.402182 -0.250501 0.0835929 0.100273 3.20814 0.514427 1.52547 1.85942 -0.652656 -0.708072 1.56545 -0.497974 0.68919 1.77048 -0.68604 -0.703757 0.679943 -1.17582 0.444246 1.85632 -0.720002 -0.737649 3.47877 0.200518 0.597719 1.91842 -3.70583 -5.32112 1.28208 -0.53155 0.44672 4.25534 -1.87004 -1.88796 0.710288 -0.970167 0.4032 4.3385 -1.90807 -1.92368 3.42483 -0.278904 -0.240415 10.8937 -5.50213 -4.49128 1.05787 -0.635999 0.156459 3.73175 -1.75765 -1.6217 0.42815 -0.754232 0.287187 2.59352 -1.20767 -1.13652 -4.17848 -1.02486 0.046356 -2.1228 -19.567 46.532 1.27155 -17.465 -0.237699 9.49866 40.6314 -2.33094 0.529163 -17.3815 -1.19582 -14.0765 8.50888 -21.6123 -0.711591 -4.4863 4.0596 25.6242 -2.38634 -8.56412 4.17848 -1.02486 0.046356 -21.3999 2.84675 -1.61581 -1.27155 -17.465 -0.237699 0.486539 -3.0952 0.930507 -0.529163 -17.3815 -1.19582 9.68575 0.396281 -6.76865 0.711591 -4.4863 4.0596 5.86932 4.93041 -1.09897 
-17.1364 42.7274 -23.0336 -1.04172 7.24398 103.02 3.55271e-015 5.99393 0.287273 -0.350563 -3.65985 2.1502 0 6.65865 -0.856112 -0.564623 -7.33036 4.29101 0 8.65624 -1.42685 -0.260058 15.7244 -8.29734 3.55271e-015 3.80999 -0.190247 -7.11533 -0.970173 -8.18008 -1.4963 7.5744 -1.52136 -44.0665 -1.2036 5.47388 -5.47506 -0.905672 0.485692 -9.89946 -41.8621 -4.79176 -11.3069 -0.201091 0.618544 1.11971 -33.5473 6.59663 -9.61414 -0.254739 3.48553 10.4356 -20.0842 -6.54861 0.176263 -0.07068 1.26622 -15.6871 50.412 18.5116 -1.04683 -0.546484 1.82182 -0.51593 0.557624 -1.56015 -0.993472 -0.621916 0.655506 -2.72967 3.35529 -8.82948 -2.64253 0.566363 2.4162 -23.6212 5.47095 -14.5209 -1.39394 -0.635138 0.899356 39.8961 7.70397 -8.81744 -0.622395 -0.856016 0.402182 39.2014 7.62943 -8.62656 -3.20814 0.514427 1.52547 -0.840508 5.94959 -9.82427 -1.56545 -0.497974 0.68919 52.7411 10.533 -13.0893 -0.679943 -1.17582 0.444246 44.481 9.78105 -10.5178 -3.47877 0.200518 0.597719 16.3707 -0.644951 -5.84617 -1.28208 -0.53155 0.44672 37.8364 9.71772 -10.3215 -0.710288 -0.970167 0.4032 39.1355 9.91105 -10.7659 -3.42483 -0.278904 -0.240415 24.5434 -1.90436 -2.26384 -1.05787 -0.635999 0.156459 31.0686 9.47884 -7.89269 -0.42815 -0.754232 0.287187 30.9985 9.46354 -7.86994 1.4963 7.5744 -1.52136 -0.204485 0.875666 8.7296 5.47506 -0.905672 0.485692 -75.643 -1.34397 30.9075 11.3069 -0.201091 0.618544 1.17782 6.00073 -12.1909 9.61414 -0.254739 3.48553 -21.901 -37.9783 0.450833 -0.176263 -0.07068 1.26622 0.14193 0.129306 0.460288 1.04683 -0.546484 1.82182 -0.0563065 -0.0167919 -0.0998156 0.993472 -0.621916 0.655506 0.12868 0.038294 0.228591 2.64253 0.566363 2.4162 -0.635056 0.376728 0.62756 1.39394 -0.635138 0.899356 -0.441886 0.147517 0.177283 0.622395 -0.856016 0.402182 -0.54626 0.181747 0.21909 3.20814 0.514427 1.52547 1.57728 -0.460781 -0.561347 1.56545 -0.497974 0.68919 1.375 -0.536157 -0.55278 0.679943 -1.17582 0.444246 1.56946 -0.606948 -0.625013 3.47877 0.200518 0.597719 1.65324 -3.53542 -5.10689 1.28208 -0.53155 0.44672 3.81523 -1.67498 -1.70162 0.710288 -0.970167 0.4032 4.00424 -1.75494 -1.77964 3.42483 -0.278904 -0.240415 10.3822 -5.25898 -4.35183 1.05787 -0.635999 0.156459 3.37294 -1.5891 -1.47303 0.42815 -0.754232 0.287187 2.29905 -1.06736 -1.00968 -4.17848 -1.02486 0.046356 -2.32543 -19.6899 46.6061 1.27155 -17.465 -0.237699 9.72577 41.2722 -2.63958 0.529163 -17.3815 -1.19582 -14.3901 8.51982 -21.477 -0.711591 -4.4863 4.0596 25.8377 -2.56692 -8.62389 4.17848 -1.02486 0.046356 -21.9094 2.84313 -1.6959 -1.27155 -17.465 -0.237699 0.484356 -3.05783 0.909629 -0.529163 -17.3815 -1.19582 9.64375 0.414462 -6.9707 0.711591 -4.4863 4.0596 5.86649 4.92509 -1.09769 
